<?xml version="1.0" standalone="no"?>
<!DOCTYPE svg PUBLIC "-//W3C//DTD SVG 20010904//EN"
 "http://www.w3.org/TR/2001/REC-SVG-20010904/DTD/svg10.dtd">
<svg version="1.0" xmlns="http://www.w3.org/2000/svg"
 width="512.000000pt" height="512.000000pt" viewBox="0 0 512.000000 512.000000"
 preserveAspectRatio="xMidYMid meet">
<metadata>
Created by potrace 1.11, written by Peter Selinger 2001-2013
</metadata>
<g transform="translate(0.000000,512.000000) scale(0.100000,-0.100000)"
fill="#000000" stroke="none">
<path d="M755 5066 c-216 -116 -302 -166 -350 -205 -27 -22 -65 -51 -84 -63
-19 -13 -54 -48 -78 -78 -23 -30 -61 -77 -84 -105 -22 -27 -59 -81 -82 -119
-34 -58 -42 -80 -45 -133 -3 -43 -9 -66 -18 -70 -12 -4 -14 -130 -14 -777 l0
-771 21 42 c23 48 67 89 116 110 26 10 178 13 799 13 609 0 765 3 761 13 -2 6
-85 152 -184 322 -99 171 -185 326 -191 344 -27 78 -8 171 47 231 26 29 304
194 1036 616 550 317 1043 601 1095 630 l95 54 -1370 0 -1370 0 -100 -54z"/>
<path d="M3765 5101 c22 -10 54 -34 71 -52 25 -27 1197 -2043 1266 -2179 17
-33 18 -9 18 738 l0 773 -45 94 c-32 65 -64 115 -109 163 -35 38 -81 94 -104
124 -44 60 -143 150 -210 192 -23 15 -58 41 -77 59 -25 23 -54 37 -107 51 -40
10 -93 27 -117 37 -39 17 -71 19 -335 19 l-291 0 40 -19z"/>
<path d="M2570 4355 c-586 -338 -1075 -626 -1087 -641 -13 -14 -23 -35 -23
-48 0 -12 46 -103 103 -202 57 -98 152 -263 211 -366 l108 -187 442 -3 442 -3
42 -28 c23 -15 54 -46 69 -69 l28 -42 5 -617 5 -618 995 575 c547 315 1010
585 1028 599 24 20 32 34 32 59 0 25 -132 262 -570 1020 -702 1217 -676 1172
-695 1180 -9 3 -29 6 -43 6 -17 0 -420 -227 -1092 -615z m-146 -606 c67 -25
139 -91 169 -157 31 -67 31 -197 0 -264 -30 -66 -102 -132 -171 -158 -78 -30
-185 -24 -258 13 -177 90 -223 334 -91 483 86 97 225 130 351 83z m925 -250
c213 -94 242 -405 49 -537 -60 -41 -112 -56 -191 -55 -84 1 -158 34 -212 95
-59 65 -79 120 -79 213 1 91 21 148 74 208 86 99 236 130 359 76z m897 -238
c191 -87 243 -336 103 -494 -59 -68 -135 -102 -229 -102 -88 1 -145 24 -204
83 -164 162 -104 441 111 518 57 20 170 17 219 -5z"/>
<path d="M2224 3595 c-85 -51 -102 -166 -35 -238 73 -80 183 -76 247 9 24 31
29 47 29 94 0 47 -5 63 -28 93 -54 71 -137 88 -213 42z"/>
<path d="M3155 3366 c-41 -18 -82 -68 -95 -114 -29 -110 83 -222 193 -191 71
19 127 88 127 157 0 49 -41 113 -90 139 -48 26 -90 29 -135 9z"/>
<path d="M4075 3125 c-80 -28 -127 -114 -106 -192 14 -51 76 -109 126 -119
111 -20 218 91 187 195 -29 96 -120 147 -207 116z"/>
<path d="M215 2763 c-11 -3 -30 -14 -42 -26 l-23 -20 0 -1262 0 -1262 26 -24
26 -24 1253 0 1253 0 26 24 26 24 0 1262 0 1262 -26 24 -26 24 -1236 1 c-680
1 -1246 0 -1257 -3z m723 -368 c59 -32 101 -75 134 -138 19 -35 23 -58 23
-137 0 -79 -4 -102 -23 -137 -33 -63 -74 -106 -134 -139 -48 -26 -62 -29 -148
-29 -79 0 -102 4 -137 23 -106 56 -163 142 -171 256 -5 86 8 139 51 203 33 50
107 106 161 123 17 5 67 8 111 7 66 -3 89 -8 133 -32z m1330 0 c59 -32 101
-75 134 -138 19 -35 23 -58 23 -137 0 -79 -4 -102 -23 -137 -33 -63 -74 -106
-134 -139 -48 -26 -62 -29 -148 -29 -79 0 -102 4 -137 23 -106 56 -163 142
-171 256 -5 86 8 139 51 203 33 50 107 106 161 123 17 5 67 8 111 7 66 -3 89
-8 133 -32z m-674 -660 c63 -30 119 -88 149 -154 29 -64 29 -188 0 -252 -30
-66 -86 -124 -151 -156 -48 -23 -70 -28 -137 -28 -67 0 -89 5 -137 28 -65 32
-121 90 -151 156 -29 64 -29 188 0 252 40 88 120 155 217 180 53 14 151 2 210
-26z m-691 -655 c70 -26 125 -75 162 -141 27 -49 30 -62 30 -149 0 -79 -4
-102 -23 -137 -33 -63 -74 -106 -134 -139 -48 -26 -62 -29 -148 -29 -105 0
-153 17 -218 79 -75 70 -111 208 -83 313 24 90 118 187 205 212 56 16 152 12
209 -9z m1365 -15 c103 -56 153 -138 160 -261 4 -72 1 -89 -21 -137 -35 -77
-86 -129 -158 -162 -55 -24 -70 -27 -143 -23 -123 7 -204 57 -262 160 -26 48
-29 62 -29 148 0 87 3 100 30 149 61 110 158 163 290 158 66 -3 90 -8 133 -32z"/>
<path d="M709 2257 c-106 -71 -106 -203 0 -274 46 -31 116 -31 162 0 106 71
106 203 0 274 -23 16 -49 23 -81 23 -32 0 -58 -7 -81 -23z"/>
<path d="M2039 2257 c-58 -39 -81 -84 -77 -145 13 -161 204 -208 295 -73 66
98 -15 241 -137 241 -32 0 -58 -7 -81 -23z"/>
<path d="M1405 1608 c-78 -27 -127 -117 -106 -195 22 -80 118 -135 198 -114
53 15 108 75 118 129 12 73 -44 162 -114 182 -43 12 -57 12 -96 -2z"/>
<path d="M710 928 c-107 -73 -108 -203 -1 -275 98 -66 241 15 241 137 0 85
-63 150 -152 158 -44 3 -59 0 -88 -20z"/>
<path d="M2040 928 c-51 -35 -73 -71 -78 -130 -4 -61 19 -106 77 -145 98 -66
241 15 241 137 0 122 -143 204 -240 138z"/>
<path d="M5107 2677 c-19 -67 -69 -99 -1144 -717 l-1052 -605 -1 -593 c0 -474
-3 -599 -13 -625 -21 -49 -62 -93 -110 -116 l-42 -21 613 0 c638 0 624 -1 747
41 17 5 83 25 148 44 122 36 206 73 279 123 24 16 60 37 80 46 20 10 75 53
123 96 47 43 95 82 105 85 11 4 20 13 20 21 0 8 10 18 23 23 13 5 47 30 77 55
30 25 57 46 61 46 13 0 65 82 83 130 15 41 16 128 14 1020 -2 536 -6 963 -11
947z"/>
<path d="M0 83 l0 -83 83 0 82 0 -42 21 c-47 23 -88 67 -109 114 -12 28 -13
24 -14 -52z"/>
</g>
</svg>
